<svg xmlns="http://www.w3.org/2000/svg" width="204" height="204" viewBox="0 0 204 204" fill="none">
  <path d="M79.492 106.301V113.775H76.1279V97.0001H79.492V104.524L85.5969 97.0001H89.658L82.7352 105.317L89.8488 113.777H85.595L79.4901 106.303L79.492 106.301Z" fill="#F1F1F2"/>
  <path d="M97.8784 113.993C94.0081 113.993 91.1974 111.301 91.1974 107.119C91.1974 102.937 93.9382 100.245 97.8784 100.245C101.819 100.245 104.44 102.865 104.44 106.83C104.44 107.262 104.416 107.695 104.344 108.128H94.6107C94.7788 110.098 96.1256 111.205 97.8067 111.205C99.2479 111.205 100.041 110.483 100.474 109.595H104.102C103.381 112.047 101.171 113.993 97.8766 113.993H97.8784ZM94.6333 105.868H100.954C100.906 104.114 99.5123 103.009 97.7802 103.009C96.169 103.009 94.8959 104.042 94.6314 105.868H94.6333Z" fill="#F1F1F2"/>
  <path d="M105.402 100.461H108.815L111.171 110.604L113.719 100.461H117.275L119.774 110.579L122.13 100.461H125.35L121.457 113.775H117.829L115.402 104.474L112.974 113.775H109.321L105.404 100.461H105.402Z" fill="#F1F1F2"/>
  <path d="M132.394 100.245C134.532 100.245 136 101.254 136.791 102.361V100.462H140.18V113.777H136.791V111.83C135.998 112.984 134.483 113.993 132.37 113.993C129.005 113.993 126.314 111.229 126.314 107.07C126.314 102.91 129.005 100.243 132.394 100.243V100.245ZM133.259 103.201C131.457 103.201 129.75 104.548 129.75 107.072C129.75 109.595 131.455 111.036 133.259 111.036C135.063 111.036 136.791 109.642 136.791 107.119C136.791 104.595 135.108 103.201 133.259 103.201Z" fill="#F1F1F2"/>
  <path d="M148.69 100.245C150.828 100.245 152.295 101.254 153.087 102.361V100.462H156.476V113.777H153.087V111.83C152.294 112.984 150.779 113.993 148.665 113.993C145.301 113.993 142.609 111.229 142.609 107.07C142.609 102.91 145.301 100.243 148.69 100.243V100.245ZM149.555 103.201C147.753 103.201 146.045 104.548 146.045 107.072C146.045 109.595 147.751 111.036 149.555 111.036C151.359 111.036 153.087 109.642 153.087 107.119C153.087 104.595 151.404 103.201 149.555 103.201Z" fill="#F1F1F2"/>
  <path d="M63.4685 113.352C63.4685 113.594 63.4213 113.687 63.172 113.683C61.9574 113.67 60.7467 113.673 59.5321 113.681C59.3527 113.681 59.2865 113.637 59.2865 113.43C59.2865 112.946 59.2865 112.463 59.2865 111.981C59.2865 108.826 59.2903 105.674 59.2903 102.521C59.2903 102.472 59.296 102.425 59.2998 102.378C59.3243 102.363 59.347 102.346 59.3715 102.331C59.9212 102.922 60.4652 103.513 61.0168 104.099C61.6231 104.746 62.2275 105.391 62.8395 106.029C63.2645 106.473 63.4648 107.002 63.4629 107.633C63.4629 109.08 63.4629 110.532 63.4629 111.979H63.4666C63.4666 112.436 63.4666 112.893 63.4666 113.35L63.4685 113.352ZM69.6206 110.963C69.6301 110.23 69.3883 109.663 68.901 109.161C68.0151 108.252 67.1556 107.317 66.2811 106.395C65.9656 106.063 65.8221 105.664 65.8221 105.196C65.8221 104.093 65.8221 102.99 65.8221 101.887C65.7919 101.798 65.7465 101.671 65.6767 101.522C65.6143 101.388 65.4689 101.012 65.1005 100.632C64.9702 100.498 64.8418 100.364 64.7114 100.23C63.9615 99.45 63.2268 98.6529 62.4825 97.8671C62.1671 97.5347 62.0216 97.1361 62.0216 96.6677C62.0216 94.7769 62.0216 92.8842 62.0216 90.9897V90.0037H55.0989V90.9897C55.0989 92.8823 55.0989 94.775 55.0989 96.6677C55.0989 97.1361 54.9553 97.5347 54.638 97.8671C53.8938 98.6529 53.1571 99.45 52.4091 100.23C52.2806 100.364 52.1503 100.498 52.02 100.632C51.6592 101.001 51.4363 101.407 51.3456 101.885C51.3343 101.94 51.3268 101.996 51.3192 102.053V102.062C51.3192 103.107 51.3192 104.148 51.3192 105.194C51.3192 105.281 51.3154 105.366 51.3041 105.449C51.2588 105.808 51.1152 106.123 50.8583 106.394C49.9856 107.315 49.1262 108.25 48.2403 109.159C47.7511 109.661 47.5093 110.23 47.5188 110.961C47.5225 111.339 47.5263 111.716 47.5282 112.096C47.5282 112.51 47.5244 112.925 47.5206 113.339C47.5206 113.59 47.5584 113.687 47.8266 113.681C49.0204 113.662 50.2142 113.668 51.408 113.677C51.6403 113.677 51.7121 113.617 51.7102 113.358V111.979H51.7064C51.7064 110.474 51.7064 108.964 51.6989 107.459C51.6989 107.166 51.7385 106.904 51.8292 106.664C51.9218 106.412 52.0672 106.186 52.2769 105.972C53.1609 105.064 54.0203 104.129 54.8949 103.209C55.2103 102.878 55.4011 102.501 55.471 102.062C55.4767 102.036 55.4804 102.009 55.4842 101.983V101.885C55.4842 101.333 55.4842 100.782 55.4842 100.23C55.4842 99.7976 55.4842 99.3631 55.4804 98.9324C55.4766 98.3356 55.6523 97.8633 56.0565 97.4497C56.9028 96.5789 57.7244 95.6873 58.5612 94.8071C59.3961 95.6873 60.2159 96.5808 61.0621 97.4497C61.4682 97.8652 61.6439 98.3374 61.6401 98.9324C61.6401 99.365 61.6363 99.7994 61.6363 100.23V100.457C61.6363 100.993 61.6363 101.53 61.6363 102.062C61.6609 102.159 61.7024 102.308 61.778 102.48C61.9385 102.854 62.1425 103.101 62.2445 103.207C63.1191 104.127 63.9785 105.062 64.8625 105.972C65.0684 106.184 65.2158 106.411 65.3083 106.662C65.399 106.902 65.4405 107.164 65.4405 107.457C65.433 108.962 65.4311 110.472 65.4311 111.977C65.4311 112.436 65.4311 112.897 65.4311 113.356C65.4311 113.615 65.5029 113.677 65.7352 113.675C66.929 113.666 68.1228 113.66 69.3146 113.679C69.5829 113.685 69.6225 113.588 69.6206 113.337C69.6206 112.882 69.6169 112.429 69.615 111.977C69.615 111.637 69.6188 111.297 69.6225 110.959L69.6206 110.963ZM57.9322 111.981C57.9322 108.826 57.9322 105.674 57.9284 102.521C57.9284 102.472 57.9228 102.425 57.919 102.378C57.8963 102.363 57.8718 102.346 57.8472 102.331C57.2994 102.922 56.7535 103.513 56.2039 104.099C55.5975 104.746 54.9912 105.391 54.3792 106.029C53.9542 106.473 53.754 107.002 53.7559 107.633C53.7596 109.08 53.7596 110.532 53.7596 111.979H53.754C53.754 112.436 53.754 112.893 53.754 113.35C53.754 113.592 53.8012 113.685 54.0524 113.681C55.2651 113.668 56.4778 113.671 57.6904 113.679C57.8699 113.679 57.936 113.636 57.936 113.428V111.979L57.9322 111.981Z" fill="url(#paint0_linear_221_87)"/>
  <defs>
    <linearGradient id="paint0_linear_221_87" x1="49.0563" y1="115.086" x2="68.0793" y2="96.0632" gradientUnits="userSpaceOnUse">
      <stop stop-color="#FFE53B"/>
      <stop offset="0.24" stop-color="#C6EA53"/>
      <stop offset="0.78" stop-color="#39F990"/>
      <stop offset="1" stop-color="#00FFA9"/>
    </linearGradient>
  </defs>
</svg>